<svg width="24" height="24" viewBox="0 0 24 24" fill="none" xmlns="http://www.w3.org/2000/svg">
<path d="M10.1159 4C8.49275 8.608 4.02899 11.2533 2 12C6.63768 12 10.8889 8.16 12.4348 6.24L10.1159 4Z" fill="#F3CE70"/>
<path d="M10.1159 20C8.49275 15.392 4.02899 12.7467 2 12C6.63768 12 10.8889 15.84 12.4348 17.76L10.1159 20Z" fill="#F3CE70"/>
<path d="M2 12C4.02899 11.2533 8.49275 8.608 10.1159 4L12.4348 6.24C10.8889 8.16 6.63768 12 2 12ZM2 12H22M2 12C4.02899 12.7467 8.49275 15.392 10.1159 20L12.4348 17.76C10.8889 15.84 6.63768 12 2 12Z" stroke="#F3CE70"/>
</svg>
